<svg data-v-423bf9ae="" xmlns="http://www.w3.org/2000/svg" viewBox="0 0 439 90" class="iconLeft"><!----><!----><!----><g data-v-423bf9ae="" id="5a0556f8-41c5-4f5b-b29c-c6535a8c98d7" fill="black" transform="matrix(4.687499930150808,0,0,4.687499930150808,105.31998771231147,-2.7187498402781856)"><path d="M1.01 3.98L1.01 13.78L2.41 13.78L2.41 9.51L6.86 9.51L6.86 8.22L2.41 8.22L2.41 5.26L7.11 5.26L7.11 3.98ZM7.95 10.30C7.95 12.46 9.46 13.97 11.48 13.97C13.50 13.97 15.01 12.46 15.01 10.30C15.01 8.15 13.50 6.64 11.48 6.64C9.46 6.64 7.95 8.15 7.95 10.30ZM9.27 10.30C9.27 8.76 10.16 7.84 11.48 7.84C12.80 7.84 13.69 8.76 13.69 10.30C13.69 11.84 12.80 12.77 11.48 12.77C10.16 12.77 9.27 11.84 9.27 10.30ZM16.07 10.30C16.07 12.46 17.58 13.97 19.60 13.97C21.62 13.97 23.13 12.46 23.13 10.30C23.13 8.15 21.62 6.64 19.60 6.64C17.58 6.64 16.07 8.15 16.07 10.30ZM17.39 10.30C17.39 8.76 18.28 7.84 19.60 7.84C20.92 7.84 21.81 8.76 21.81 10.30C21.81 11.84 20.92 12.77 19.60 12.77C18.28 12.77 17.39 11.84 17.39 10.30ZM31.25 3.98L29.93 3.98L29.93 7.92L29.76 7.92C29.39 7.29 28.76 6.64 27.41 6.64C25.61 6.64 24.19 8.15 24.19 10.30C24.19 12.46 25.61 13.97 27.41 13.97C28.76 13.97 29.39 13.31 29.76 12.68L29.96 12.68L29.96 13.78L31.25 13.78ZM27.75 7.81C29.09 7.81 29.93 8.76 29.93 10.30C29.93 11.84 29.09 12.80 27.75 12.80C26.43 12.80 25.51 11.90 25.51 10.30C25.51 8.71 26.43 7.81 27.75 7.81ZM32.80 4.82C32.80 5.40 33.28 5.85 33.87 5.85C34.45 5.85 34.93 5.40 34.93 4.82C34.93 4.23 34.45 3.78 33.87 3.78C33.28 3.78 32.80 4.23 32.80 4.82ZM34.52 6.83L33.21 6.83L33.21 13.78L34.52 13.78ZM36.04 10.25C36.04 12.35 37.49 13.97 39.62 13.97C41.26 13.97 42.14 13.06 42.66 12.22L41.55 11.59C41.19 12.32 40.60 12.82 39.59 12.82C38.36 12.82 37.49 12.04 37.41 10.78L42.92 10.78L42.92 10.12C42.92 8.11 41.52 6.64 39.51 6.64C37.52 6.64 36.04 8.20 36.04 10.25ZM37.41 9.72C37.51 8.47 38.30 7.78 39.51 7.78C40.71 7.78 41.52 8.51 41.55 9.72ZM44.46 3.98L44.46 13.78L48.54 13.78C50.22 13.78 51.44 12.78 51.44 11.13C51.44 9.98 50.72 9.21 49.78 8.95L49.78 8.78C50.76 8.53 51.41 7.76 51.41 6.61C51.41 4.93 50.20 3.98 48.51 3.98ZM45.86 5.26L48.38 5.26C49.38 5.26 50.06 5.82 50.06 6.72C50.06 7.66 49.42 8.22 48.41 8.22L45.86 8.22ZM45.86 9.51L48.44 9.51C49.45 9.51 50.09 10.08 50.09 11.02C50.09 11.93 49.41 12.49 48.41 12.49L45.86 12.49ZM54.35 3.98L53.03 3.98L53.03 13.78L54.35 13.78ZM55.86 10.30C55.86 12.46 57.37 13.97 59.39 13.97C61.40 13.97 62.92 12.46 62.92 10.30C62.92 8.15 61.40 6.64 59.39 6.64C57.37 6.64 55.86 8.15 55.86 10.30ZM57.18 10.30C57.18 8.76 58.07 7.84 59.39 7.84C60.70 7.84 61.60 8.76 61.60 10.30C61.60 11.84 60.70 12.77 59.39 12.77C58.07 12.77 57.18 11.84 57.18 10.30ZM69.75 6.83L69.75 7.92L69.55 7.92C69.17 7.29 68.54 6.64 67.20 6.64C65.39 6.64 63.98 8.11 63.98 10.22C63.98 12.33 65.39 13.80 67.20 13.80C68.54 13.80 69.17 13.15 69.55 12.52L69.72 12.52L69.72 15.01C69.72 15.29 69.58 15.43 69.33 15.43L64.60 15.43L64.60 16.58L69.89 16.58C70.56 16.58 71.04 16.10 71.04 15.40L71.04 6.83ZM67.54 12.63C66.22 12.63 65.30 11.77 65.30 10.22C65.30 8.67 66.22 7.81 67.54 7.81C68.88 7.81 69.72 8.72 69.72 10.22C69.72 11.72 68.88 12.63 67.54 12.63Z"></path></g><!----><g data-v-423bf9ae="" id="e86ae488-a8af-40de-8235-fbed5954ca47" transform="matrix(2.8141986960288694,0,0,2.8141986960288694,0.9728208635380895,-0.03504220790252788)" stroke="none" fill="black"><path d="M29.5 21h-2.691c-.045-.239-.1-.473-.16-.706l4.799-2.399a1.001 1.001 0 0 0-.895-1.789l-4.578 2.288C24.229 14.626 20.42 12 16 12c-5.382 0-9.865 3.888-10.809 9H2.5A2.503 2.503 0 0 0 0 23.5c0 .49.18.963.505 1.329L4 28.761v.739C4 30.879 5.122 32 6.5 32h19c1.379 0 2.5-1.121 2.5-2.5v-.739l3.494-3.932c.326-.366.506-.839.506-1.329 0-1.379-1.121-2.5-2.5-2.5zm-3.701 0h-.562l.498-.25c.019.084.046.165.064.25zM16 13c4.029 0 7.5 2.4 9.082 5.841l-.891.445C22.775 16.171 19.645 14 16 14c-4.282 0-7.859 2.993-8.77 7H6.202c.929-4.559 4.969-8 9.798-8zm4.576 8c-.773-1.763-2.531-3-4.576-3s-3.802 1.237-4.576 3H10.35c.826-2.326 3.043-4 5.65-4a6.006 6.006 0 0 1 5.508 3.627l-.744.373h-.188zM16 20c-.883 0-1.67.391-2.22 1h-1.224c.694-1.189 1.97-2 3.444-2 1.473 0 2.75.811 3.443 2h-1.225A2.977 2.977 0 0 0 16 20zm0-4c-3.165 0-5.842 2.112-6.705 5H8.263c.892-3.444 4.017-6 7.737-6 3.246 0 6.043 1.948 7.295 4.734l-.893.446C21.314 17.723 18.855 16 16 16zm10 12v1.5a.5.5 0 0 1-.5.5h-19a.5.5 0 0 1-.5-.5V28l-4-4.5a.5.5 0 0 1 .5-.5h27a.5.5 0 0 1 .5.5L26 28zM7.977 11.712l.008.018h.002c.083.16.249.27.443.27a.503.503 0 0 0 .484-.628.034.034 0 0 0 0-.02c-.375-.882-.019-1.85.419-2.892.473-1.126.98-2.376.422-3.647a.49.49 0 0 0-.913.352l.003.009.005.012c.404.909.013 1.841-.428 2.893-.466 1.109-.982 2.338-.463 3.591l.018.042zM20.154 11.566c.004.006.006.012.008.018h.002a.501.501 0 0 0 .929-.357.024.024 0 0 0-.002-.02c-.373-.882-.018-1.85.42-2.892.473-1.126.98-2.376.422-3.647a.49.49 0 0 0-.914.346v.006l.004.009a.028.028 0 0 1 .004.012c.404.909.014 1.841-.428 2.893-.465 1.109-.98 2.339-.461 3.592l.016.04zM15.019 7.212l.008.018h.002a.501.501 0 0 0 .945-.232.472.472 0 0 0-.018-.125.034.034 0 0 0 0-.02c-.375-.882-.019-1.85.419-2.892.473-1.126.98-2.376.422-3.647a.49.49 0 0 0-.914.351l.003.009.004.012c.404.909.013 1.841-.428 2.893-.466 1.109-.982 2.339-.462 3.592l.019.041z"></path></g><!----></svg>